<svg width="165" height="24" viewBox="0 0 165 24" fill="none" xmlns="http://www.w3.org/2000/svg">
<path d="M12.95 17.7L11.47 14.37L6.72996 3.83001C5.77996 1.70001 3.66996 0.32001 1.33996 0.32001H0.559966C0.139966 0.32001 -0.130036 0.76001 0.0499639 1.13001L10.63 22.99C10.95 23.67 11.92 23.66 12.25 22.98L12.88 21.67C13.48 20.42 13.51 18.97 12.95 17.7ZM22.57 0.32001C19.58 0.32001 16.87 2.09001 15.66 4.83001L12.47 12.08C12.12 12.89 12.12 13.8 12.48 14.6C12.82 15.33 13.21 16.04 13.52 16.78C13.89 17.64 14.16 18.62 13.98 19.54C14.49 18.24 15.14 16.98 15.74 15.72C16.54 14.07 17.33 12.42 18.12 10.77C18.97 9.00001 19.82 7.24001 20.67 5.47001C21.28 4.20001 21.89 2.93001 22.5 1.66001C22.64 1.39001 22.77 1.11001 22.9 0.84001C23.01 0.60001 22.84 0.32001 22.57 0.32001ZM130.6 0.32001V18.84C130.6 21.51 132.77 23.68 135.44 23.68V5.16001C135.44 2.49001 133.27 0.32001 130.6 0.32001ZM118.73 19V5.16001C118.73 2.49001 116.56 0.32001 113.89 0.32001V23.68H128.84V19H118.73ZM112.13 5.00001V0.32001H97.19V23.68H102.02V14.92H110.31V10.27H102.02V5.00001H112.13ZM82.98 0.0100098C76.2 0.0100098 70.96 5.25001 70.96 12C70.96 18.75 76.17 23.99 82.98 23.99C89.79 23.99 95.07 18.78 95.07 12C95.07 5.22001 89.76 0.0100098 82.98 0.0100098ZM82.98 19.22C78.96 19.22 75.92 16.14 75.92 12C75.92 7.86001 78.9 4.78001 82.98 4.78001C87.06 4.78001 90.08 7.85001 90.08 12C90.08 16.15 87 19.22 82.98 19.22ZM69.79 4.97001V0.32001H54.53V23.68H69.79V19.03H59.37V13.98H68.56V9.61001H59.37V4.97001H69.79ZM39.45 0.32001H31.51V23.68H39.45C47.2 23.68 52.39 19 52.39 12C52.39 5.00001 47.2 0.32001 39.45 0.32001ZM40.14 19H36.34V5.00001H40.14C44.44 5.00001 47.43 7.85001 47.43 12C47.43 16.15 44.44 19 40.14 19ZM23.59 0.32001V23.68H28.43V5.16001C28.43 2.49001 26.26 0.32001 23.59 0.32001ZM150.86 15.04L159.15 23.59H157.62C154.9 23.59 152.29 22.5 150.38 20.57L147.97 18.13L147.53 17.74L145.9 19.39C143.86 21.45 142.1 22.82 139.04 23.35C138.33 23.47 137.69 22.92 137.69 22.2C137.69 21.9 137.81 21.6 138.03 21.38L144.66 14.76L144.75 14.69L144.14 14.06L140.64 10.52H140.65C138.7 8.55001 137.6 5.89001 137.6 3.12001C137.6 2.56001 138.28 2.28001 138.68 2.68001L147.6 11.71L148.2 11.09L149.23 10.05L155.46 3.81001C157.63 1.63001 160.59 0.410009 163.67 0.410009H164.66L151.6 13.5L151.38 13.72L150.45 14.68L150.86 15.04Z" fill="url(#paint0_linear_62_32)"/>
<defs>
<linearGradient id="paint0_linear_62_32" x1="-10.72" y1="25.75" x2="172.74" y2="-2.2" gradientUnits="userSpaceOnUse">
<stop stop-color="#8903FF"/>
<stop offset="1" stop-color="#3547FF"/>
</linearGradient>
</defs>
</svg>
