<svg width="32" height="32" viewBox="0 0 32 32" fill="none" xmlns="http://www.w3.org/2000/svg">
<g clip-path="url(#clip0_78_140)">
<path d="M0.700588 0.0499256C1.07555 0.229926 1.45051 0.419926 1.81561 0.599926C3.55228 1.44993 5.27908 2.30993 7.01575 3.15993C9.4234 4.33993 11.8212 5.52993 14.2288 6.70993C16.4786 7.81993 18.7284 8.92992 20.9782 10.0299C22.6951 10.8799 24.412 11.7699 26.1882 12.4899C24.9251 12.2299 23.593 12.6199 22.4287 13.1199C21.4222 13.5599 20.4552 14.0999 19.4586 14.5699C18.3732 15.0799 17.12 15.0799 16.0247 14.5899L6.13755 10.1399C2.40765 8.46993 0 4.67993 0 0.499926C0 0.129926 0.374963 -0.110074 0.700588 0.0499256Z" fill="url(#paint0_linear_78_140)"/>
<path d="M30.8851 17.1699L4.243 30.3599L1.09529 31.9199C0.592046 32.1699 0 31.7899 0 31.2199V30.1299C0 27.0799 1.64786 24.2999 4.243 22.8799C4.42061 22.7799 4.59823 22.6999 4.77584 22.6099L19.1428 15.9999L23.6819 13.9399C24.0173 13.7899 24.3627 13.6699 24.7179 13.5799C25.4087 13.3999 26.1191 13.3399 26.8296 13.3999C27.6091 13.4699 28.3689 13.6799 29.0892 14.0299L30.8851 14.9099C31.8126 15.3699 31.8126 16.7199 30.8851 17.1699Z" fill="url(#paint1_linear_78_140)"/>
</g>
<defs>
<linearGradient id="paint0_linear_78_140" x1="13.0941" y1="14.9599" x2="13.0941" y2="-7.45392e-05" gradientUnits="userSpaceOnUse">
<stop stop-color="#3547FF"/>
<stop offset="1" stop-color="#8903FF"/>
</linearGradient>
<linearGradient id="paint1_linear_78_140" x1="-0.927539" y1="29.9999" x2="29.8404" y2="13.8405" gradientUnits="userSpaceOnUse">
<stop stop-color="#8903FF"/>
<stop offset="1" stop-color="#3547FF"/>
</linearGradient>
<clipPath id="clip0_78_140">
<rect width="32" height="32" fill="white"/>
</clipPath>
</defs>
</svg>
