<svg width="48" height="48" viewBox="0 0 48 48" fill="none" xmlns="http://www.w3.org/2000/svg">
<mask id="mask0_79_424" style="mask-type:alpha" maskUnits="userSpaceOnUse" x="0" y="0" width="48" height="48">
<rect width="48" height="48" fill="#D9D9D9"/>
</mask>
<g mask="url(#mask0_79_424)">
<path d="M13.6996 25.5L25.0496 36.85C25.3496 37.15 25.4996 37.5 25.4996 37.9C25.4996 38.3 25.3496 38.65 25.0496 38.95C24.7496 39.25 24.3996 39.4 23.9996 39.4C23.5996 39.4 23.2496 39.25 22.9496 38.95L9.04961 25.05C8.88294 24.8833 8.76628 24.7166 8.69961 24.55C8.63294 24.3833 8.59961 24.2 8.59961 24C8.59961 23.8 8.63294 23.6166 8.69961 23.45C8.76628 23.2833 8.88294 23.1166 9.04961 22.95L22.9496 9.04998C23.2496 8.74998 23.5996 8.59998 23.9996 8.59998C24.3996 8.59998 24.7496 8.74998 25.0496 9.04998C25.3496 9.34998 25.4996 9.69998 25.4996 10.1C25.4996 10.5 25.3496 10.85 25.0496 11.15L13.6996 22.5H38.4996C38.9329 22.5 39.2913 22.6416 39.5746 22.925C39.8579 23.2083 39.9996 23.5666 39.9996 24C39.9996 24.4333 39.8579 24.7916 39.5746 25.075C39.2913 25.3583 38.9329 25.5 38.4996 25.5H13.6996Z" fill="white"/>
</g>
</svg>
