<svg width="10" height="10" viewBox="0 0 10 10" fill="none" xmlns="http://www.w3.org/2000/svg">
<path d="M5.00005 6.40001L2.10005 9.30001C1.91672 9.48335 1.68338 9.57501 1.40005 9.57501C1.11672 9.57501 0.883382 9.48335 0.700049 9.30001C0.516716 9.11668 0.425049 8.88335 0.425049 8.60001C0.425049 8.31668 0.516716 8.08335 0.700049 7.90001L3.60005 5.00001L0.700049 2.12501C0.516716 1.94168 0.425049 1.70835 0.425049 1.42501C0.425049 1.14168 0.516716 0.908346 0.700049 0.725012C0.883382 0.541679 1.11672 0.450012 1.40005 0.450012C1.68338 0.450012 1.91672 0.541679 2.10005 0.725012L5.00005 3.62501L7.87505 0.725012C8.05838 0.541679 8.29172 0.450012 8.57505 0.450012C8.85838 0.450012 9.09172 0.541679 9.27505 0.725012C9.47505 0.925012 9.57505 1.16251 9.57505 1.43751C9.57505 1.71251 9.47505 1.94168 9.27505 2.12501L6.37505 5.00001L9.27505 7.90001C9.45838 8.08335 9.55005 8.31668 9.55005 8.60001C9.55005 8.88335 9.45838 9.11668 9.27505 9.30001C9.07505 9.50001 8.83755 9.60001 8.56255 9.60001C8.28755 9.60001 8.05838 9.50001 7.87505 9.30001L5.00005 6.40001Z" fill="white"/>
</svg>
