<svg width="22" height="13" viewBox="0 0 22 13" fill="none" xmlns="http://www.w3.org/2000/svg">
<path d="M2 10.5H20C20.2833 10.5 20.5208 10.5958 20.7125 10.7875C20.9042 10.9792 21 11.2167 21 11.5C21 11.7833 20.9042 12.0208 20.7125 12.2125C20.5208 12.4042 20.2833 12.5 20 12.5H2C1.71667 12.5 1.47917 12.4042 1.2875 12.2125C1.09583 12.0208 1 11.7833 1 11.5C1 11.2167 1.09583 10.9792 1.2875 10.7875C1.47917 10.5958 1.71667 10.5 2 10.5ZM3 4.94999L2.525 5.79999C2.425 5.98333 2.275 6.09999 2.075 6.14999C1.875 6.19999 1.68333 6.17499 1.5 6.07499C1.31667 5.97499 1.2 5.82499 1.15 5.62499C1.1 5.42499 1.125 5.23333 1.225 5.04999L1.7 4.19999H0.75C0.533333 4.19999 0.354167 4.12916 0.2125 3.98749C0.0708333 3.84583 0 3.66666 0 3.44999C0 3.23333 0.0708333 3.05416 0.2125 2.91249C0.354167 2.77083 0.533333 2.69999 0.75 2.69999H1.7L1.225 1.89999C1.125 1.71666 1.1 1.52499 1.15 1.32499C1.2 1.12499 1.31667 0.974994 1.5 0.874994C1.68333 0.774994 1.875 0.749994 2.075 0.799994C2.275 0.849994 2.425 0.966661 2.525 1.14999L3 1.94999L3.475 1.14999C3.575 0.966661 3.725 0.849994 3.925 0.799994C4.125 0.749994 4.31667 0.774994 4.5 0.874994C4.68333 0.974994 4.8 1.12499 4.85 1.32499C4.9 1.52499 4.875 1.71666 4.775 1.89999L4.3 2.69999H5.25C5.46667 2.69999 5.64583 2.77083 5.7875 2.91249C5.92917 3.05416 6 3.23333 6 3.44999C6 3.66666 5.92917 3.84583 5.7875 3.98749C5.64583 4.12916 5.46667 4.19999 5.25 4.19999H4.3L4.775 5.04999C4.875 5.23333 4.9 5.42499 4.85 5.62499C4.8 5.82499 4.68333 5.97499 4.5 6.07499C4.31667 6.17499 4.125 6.19999 3.925 6.14999C3.725 6.09999 3.575 5.98333 3.475 5.79999L3 4.94999ZM11 4.94999L10.525 5.79999C10.425 5.98333 10.275 6.09999 10.075 6.14999C9.875 6.19999 9.68333 6.17499 9.5 6.07499C9.31667 5.97499 9.2 5.82499 9.15 5.62499C9.1 5.42499 9.125 5.23333 9.225 5.04999L9.7 4.19999H8.75C8.53333 4.19999 8.35417 4.12916 8.2125 3.98749C8.07083 3.84583 8 3.66666 8 3.44999C8 3.23333 8.07083 3.05416 8.2125 2.91249C8.35417 2.77083 8.53333 2.69999 8.75 2.69999H9.7L9.225 1.89999C9.125 1.71666 9.1 1.52499 9.15 1.32499C9.2 1.12499 9.31667 0.974994 9.5 0.874994C9.68333 0.774994 9.875 0.749994 10.075 0.799994C10.275 0.849994 10.425 0.966661 10.525 1.14999L11 1.94999L11.475 1.14999C11.575 0.966661 11.725 0.849994 11.925 0.799994C12.125 0.749994 12.3167 0.774994 12.5 0.874994C12.6833 0.974994 12.8 1.12499 12.85 1.32499C12.9 1.52499 12.875 1.71666 12.775 1.89999L12.3 2.69999H13.25C13.4667 2.69999 13.6458 2.77083 13.7875 2.91249C13.9292 3.05416 14 3.23333 14 3.44999C14 3.66666 13.9292 3.84583 13.7875 3.98749C13.6458 4.12916 13.4667 4.19999 13.25 4.19999H12.3L12.775 5.04999C12.875 5.23333 12.9 5.42499 12.85 5.62499C12.8 5.82499 12.6833 5.97499 12.5 6.07499C12.3167 6.17499 12.125 6.19999 11.925 6.14999C11.725 6.09999 11.575 5.98333 11.475 5.79999L11 4.94999ZM19 4.94999L18.525 5.79999C18.425 5.98333 18.275 6.09999 18.075 6.14999C17.875 6.19999 17.6833 6.17499 17.5 6.07499C17.3167 5.97499 17.2 5.82499 17.15 5.62499C17.1 5.42499 17.125 5.23333 17.225 5.04999L17.7 4.19999H16.75C16.5333 4.19999 16.3542 4.12916 16.2125 3.98749C16.0708 3.84583 16 3.66666 16 3.44999C16 3.23333 16.0708 3.05416 16.2125 2.91249C16.3542 2.77083 16.5333 2.69999 16.75 2.69999H17.7L17.225 1.89999C17.125 1.71666 17.1 1.52499 17.15 1.32499C17.2 1.12499 17.3167 0.974994 17.5 0.874994C17.6833 0.774994 17.875 0.749994 18.075 0.799994C18.275 0.849994 18.425 0.966661 18.525 1.14999L19 1.94999L19.475 1.14999C19.575 0.966661 19.725 0.849994 19.925 0.799994C20.125 0.749994 20.3167 0.774994 20.5 0.874994C20.6833 0.974994 20.8 1.12499 20.85 1.32499C20.9 1.52499 20.875 1.71666 20.775 1.89999L20.3 2.69999H21.25C21.4667 2.69999 21.6458 2.77083 21.7875 2.91249C21.9292 3.05416 22 3.23333 22 3.44999C22 3.66666 21.9292 3.84583 21.7875 3.98749C21.6458 4.12916 21.4667 4.19999 21.25 4.19999H20.3L20.775 5.04999C20.875 5.23333 20.9 5.42499 20.85 5.62499C20.8 5.82499 20.6833 5.97499 20.5 6.07499C20.3167 6.17499 20.125 6.19999 19.925 6.14999C19.725 6.09999 19.575 5.98333 19.475 5.79999L19 4.94999Z" fill="#2E3EDF"/>
</svg>
